<svg width="2266" height="300" viewBox="0 0 2266 300" fill="none" xmlns="http://www.w3.org/2000/svg">
<g filter="url(#filter0_b_965_138)">
<rect width="1945.69" height="28.7406" transform="matrix(0.994525 0.104498 -0.0882251 0.996101 4.6543 18.0977)" fill="url(#paint0_linear_965_138)"/>
</g>
<path d="M23.3769 40.1228C21.0995 39.8835 19.4674 39.2143 18.4806 38.1153C17.4948 37.0064 17.0813 35.5554 17.2401 33.7624C17.3971 31.9894 18.0519 30.6607 19.2042 29.7764C20.3665 28.8932 22.0914 28.5717 24.3788 28.812C26.6762 29.0534 28.3128 29.7281 29.2887 30.836C30.2746 31.945 30.689 33.386 30.5319 35.159C30.3722 36.962 29.7166 38.3006 28.5651 39.1749C27.4136 40.0493 25.6842 40.3652 23.3769 40.1228ZM23.6469 37.0747C24.7509 37.1907 25.565 37.0651 26.0894 36.6979C26.6146 36.3208 26.917 35.684 26.9964 34.7875C27.074 33.911 26.8882 33.2329 26.4388 32.7534C25.9894 32.2739 25.2127 31.9761 24.1088 31.8601C23.0148 31.7452 22.2052 31.8763 21.68 32.2534C21.1547 32.6305 20.8533 33.2573 20.7756 34.1339C20.6971 35.0204 20.8825 35.7035 21.3319 36.183C21.7813 36.6625 22.553 36.9597 23.6469 37.0747ZM41.0261 30.8628L44.7257 31.2516L44.199 37.1983C44.0494 38.6605 43.44 39.818 42.3707 40.6708C41.3113 41.5246 39.6231 41.8298 37.3058 41.5863C34.9587 41.3397 33.3927 40.7177 32.6078 39.7203C31.8237 38.713 31.5074 37.4683 31.6587 35.9862L32.1947 29.9349L35.8944 30.3236L35.3795 36.1359C35.3407 36.5742 35.3388 36.9359 35.3737 37.2211C35.4195 37.4973 35.6059 37.7733 35.9328 38.0489C36.2696 38.3256 36.8309 38.5052 37.6166 38.5878C38.4719 38.6776 39.109 38.6239 39.528 38.4267C39.9479 38.2195 40.2058 37.9701 40.3019 37.6786C40.408 37.3881 40.4817 37.0088 40.5232 36.5406L41.0261 30.8628ZM57.5755 36.2663C57.4987 37.1329 57.22 37.8426 56.7394 38.3953C56.2688 38.9491 55.5094 39.3066 54.4612 39.4679C54.5664 39.6398 54.6399 39.7732 54.6817 39.8681L56.8006 43.4839L52.743 43.0575C52.3777 42.1948 51.7889 40.9667 50.9764 39.3732L48.7835 39.1428L48.4765 42.6092L44.9558 42.2393C45.2066 40.3152 45.4065 38.5115 45.5556 36.8281C45.7047 35.1447 45.8251 33.3326 45.9167 31.3918L49.4373 31.7617L49.436 31.7767L52.4941 32.098C54.5031 32.3091 55.8767 32.7801 56.615 33.5112C57.3532 34.2423 57.6734 35.1606 57.5755 36.2663ZM49.1819 34.6454L49.031 36.3487L51.0449 36.5604C51.8902 36.6492 52.529 36.6912 52.961 36.6863C53.4039 36.6725 53.7152 36.6147 53.8948 36.513C54.0745 36.4112 54.1745 36.2458 54.1947 36.0166C54.2142 35.7975 54.1496 35.6198 54.0011 35.4836C53.8525 35.3473 53.5617 35.2313 53.1285 35.1355C52.6953 35.0397 52.0511 34.9469 51.1958 34.857L49.1819 34.6454ZM68.8442 33.8159C70.8234 34.0239 72.1694 34.5222 72.8825 35.311C73.5965 36.0898 73.897 37.1166 73.7841 38.3917C73.7064 39.2682 73.4861 39.9991 73.1231 40.5843C72.761 41.1595 72.1766 41.5807 71.37 41.8478C70.5643 42.105 69.4802 42.162 68.1177 42.0188L65.0147 41.6928L64.7818 44.3225L61.112 43.9369C61.3627 42.0128 61.5627 40.2091 61.7118 38.5257C61.8609 36.8423 61.9812 35.0302 62.0729 33.0894L65.7427 33.475L65.7413 33.4899L68.8442 33.8159ZM67.3288 39.0254C68.1543 39.1121 68.7735 39.147 69.1866 39.1301C69.6105 39.1043 69.9095 39.015 70.0836 38.8624C70.2677 38.7109 70.3743 38.4707 70.4034 38.142C70.4325 37.8133 70.3745 37.5609 70.2295 37.3848C70.0954 37.1998 69.8221 37.0554 69.4097 36.9518C69.0072 36.8492 68.3833 36.7535 67.5379 36.6646L65.4793 36.4483L65.2702 38.8091L67.3288 39.0254ZM86.9887 39.3568C86.912 40.2235 86.6333 40.9331 86.1527 41.4858C85.6821 42.0396 84.9227 42.3972 83.8745 42.5585C83.9797 42.7304 84.0532 42.8638 84.095 42.9587L86.2139 46.5744L82.1562 46.1481C81.791 45.2853 81.2022 44.0572 80.3897 42.4638L78.1968 42.2334L77.8897 45.6998L74.3691 45.3299C74.6198 43.4058 74.8198 41.602 74.9689 39.9186C75.118 38.2352 75.2383 36.4231 75.3299 34.4823L78.8506 34.8523L78.8492 34.8672L81.9074 35.1885C83.9164 35.3996 85.29 35.8707 86.0282 36.6017C86.7665 37.3328 87.0867 38.2512 86.9887 39.3568ZM78.5951 37.736L78.4443 39.4393L80.4582 39.6509C81.3035 39.7397 81.9422 39.7817 82.3743 39.7768C82.8172 39.763 83.1284 39.7053 83.3081 39.6035C83.4878 39.5017 83.5877 39.3363 83.608 39.1072C83.6274 38.888 83.5629 38.7104 83.4143 38.5741C83.2658 38.4378 82.9749 38.3218 82.5418 38.226C82.1086 38.1303 81.4643 38.0374 80.6091 37.9476L78.5951 37.736ZM94.164 47.5606C91.8866 47.3213 90.2545 46.6521 89.2677 45.5531C88.2819 44.4442 87.8683 42.9932 88.0272 41.2002C88.1842 39.4272 88.8389 38.0985 89.9913 37.2142C91.1536 36.331 92.8785 36.0095 95.1659 36.2499C97.4632 36.4912 99.0999 37.1659 100.076 38.2738C101.062 39.3828 101.476 40.8238 101.319 42.5968C101.159 44.3998 100.504 45.7384 99.3522 46.6127C98.2007 47.4871 96.4713 47.803 94.164 47.5606ZM94.434 44.5125C95.5379 44.6285 96.3521 44.5029 96.8765 44.1358C97.4017 43.7586 97.704 43.1218 97.7834 42.2253C97.8611 41.3488 97.6752 40.6707 97.2258 40.1912C96.7765 39.7117 95.9998 39.4139 94.8959 39.2979C93.8019 39.183 92.9923 39.3141 92.467 39.6912C91.9418 40.0683 91.6403 40.6951 91.5627 41.5717C91.4842 42.4582 91.6696 43.1413 92.119 43.6208C92.5683 44.1003 93.34 44.3976 94.434 44.5125ZM114.087 38.5396L113.62 43.8139C113.455 45.6766 112.846 47.0504 111.794 47.9352C110.753 48.811 109.193 49.1397 107.115 48.9213C105.921 48.7959 104.833 48.5056 103.849 48.0504C102.876 47.5962 102.021 47.049 101.284 46.4086C101.528 45.8109 101.735 45.2344 101.904 44.6791C102.074 44.1239 102.219 43.5108 102.338 42.8397C103.29 43.7741 104.184 44.4461 105.021 44.8558C105.858 45.2654 106.669 45.5115 107.455 45.5941C108.27 45.6798 108.868 45.5566 109.249 45.2247C109.63 44.8927 109.865 44.279 109.954 43.3835L110.055 42.248C110.198 40.6343 110.274 39.2649 110.283 38.1399L114.087 38.5396ZM118.078 47.1627C121.859 47.5399 124.604 47.773 126.312 47.8621C126.207 48.2631 126.124 48.6818 126.066 49.118C126.018 49.5453 125.965 50.0876 125.906 50.745L114.315 49.5271C114.566 47.603 114.766 45.7993 114.915 44.1159C115.064 42.4325 115.184 40.6204 115.276 38.6796L126.867 39.8975L126.628 42.6019L118.557 41.7539L118.43 43.1883C118.907 43.2484 119.612 43.3276 120.547 43.4258C122.128 43.592 123.767 43.734 125.463 43.8519L125.235 46.4218C123.55 46.1844 121.917 45.9826 120.335 45.8165C119.4 45.7182 118.694 45.649 118.216 45.6088L118.078 47.1627ZM133.802 51.7255C131.555 51.4893 129.941 50.8372 128.962 49.7692C127.982 48.7011 127.571 47.2805 127.728 45.5075C127.886 43.7244 128.543 42.3709 129.699 41.4467C130.855 40.5226 132.557 40.1786 134.804 40.4148C137.947 40.745 139.955 42.0468 140.827 44.3201C139.905 44.5349 138.815 44.8878 137.557 45.379C137.318 44.7908 136.897 44.3294 136.294 43.9946C135.701 43.6609 135.082 43.46 134.435 43.3921C133.48 43.2918 132.747 43.4711 132.234 43.93C131.723 44.3789 131.434 44.9719 131.369 45.7091C131.299 46.5059 131.489 47.1845 131.942 47.7448C132.405 48.2961 133.153 48.6261 134.188 48.7348C135.013 48.8215 135.682 48.756 136.193 48.5383C136.705 48.3106 137.102 47.9099 137.383 47.3363C138.16 47.8603 139.161 48.4631 140.385 49.1447C139.781 50.2977 138.876 51.0522 137.67 51.408C136.464 51.7639 135.175 51.8697 133.802 51.7255ZM154.822 46.0017C153.265 45.7879 151.751 45.5986 150.28 45.434L149.589 53.2335L145.86 52.8416L146.551 45.0421C145.068 44.8964 143.554 44.7674 142.008 44.6553L142.286 41.5176L155.1 42.864L154.822 46.0017ZM155.453 52.5527C155.836 52.0802 156.157 51.6363 156.414 51.221C156.682 50.8068 156.946 50.3217 157.206 49.766C157.876 50.2485 158.668 50.6535 159.582 50.9808C160.497 51.3082 161.357 51.5142 162.163 51.5988C162.988 51.6855 163.576 51.6769 163.927 51.573C164.278 51.4591 164.461 51.3175 164.476 51.1482C164.53 50.5406 163.632 50.1396 161.782 49.9452C159.753 49.732 158.3 49.3682 157.422 48.8537C156.545 48.3292 156.148 47.5938 156.232 46.6476C156.351 45.3028 156.996 44.3702 158.166 43.8498C159.337 43.3293 160.812 43.1626 162.592 43.3496C163.627 43.4583 164.674 43.7041 165.734 44.0869C166.805 44.4609 167.758 44.9229 168.592 45.4731C168.246 46.1002 167.871 46.8702 167.469 47.783C167.392 47.976 167.329 48.1202 167.28 48.2156C166.809 47.7539 166.074 47.3348 165.073 46.9582C164.073 46.5716 163.181 46.3371 162.395 46.2545C161.45 46.1553 160.808 46.1531 160.468 46.2482C160.13 46.3332 159.95 46.4953 159.928 46.7343C159.907 46.9734 160.114 47.1911 160.548 47.3876C160.993 47.5751 161.644 47.7138 162.499 47.8037C164.607 48.0252 166.117 48.4302 167.029 49.0186C167.941 49.597 168.353 50.3843 168.265 51.3804C168.141 52.7749 167.545 53.7277 166.476 54.2387C165.408 54.7397 163.844 54.8821 161.786 54.6658C160.682 54.5498 159.568 54.3122 158.446 53.9529C157.324 53.5837 156.327 53.117 155.453 52.5527ZM184.944 57.0991C183.89 56.9884 182.943 56.6275 182.104 56.0165C181.266 55.3956 180.622 54.6142 180.174 53.6722C179.735 52.7314 179.563 51.733 179.656 50.6771C179.75 49.6213 180.094 48.6773 180.69 47.8451C181.296 47.0139 182.064 46.3859 182.995 45.9609C183.926 45.5359 184.918 45.3788 185.973 45.4896C187.017 45.5993 187.959 45.9597 188.798 46.5706C189.647 47.1827 190.291 47.9591 190.73 48.9C191.168 49.8408 191.341 50.8392 191.247 51.8951C191.154 52.9509 190.809 53.895 190.213 54.7272C189.618 55.5593 188.849 56.1924 187.907 56.6263C186.976 57.0512 185.989 57.2089 184.944 57.0991ZM210.073 55.4717L211.449 48.7847L215.089 49.1672L212.129 59.8047L207.549 59.3235L207.071 53.1656L205.356 59.0931L200.97 58.6322L199.932 47.5747L203.572 47.9571L203.741 54.7159L205.526 48.1625L209.509 48.581L210.073 55.4717ZM217.646 60.686L213.947 60.2973L217.771 49.5848L221.471 49.9735L217.646 60.686ZM223.896 61.3427L220.196 60.954L224.021 50.2415L227.721 50.6302L223.896 61.3427ZM238.919 58.5026L240.294 51.8156L243.934 52.198L240.974 62.8355L236.394 62.3543L235.916 56.1964L234.201 62.1239L229.815 61.6631L228.777 50.6055L232.417 50.988L232.586 57.7468L234.371 51.1933L238.354 51.6118L238.919 58.5026ZM256.999 64.6701C255.945 64.5594 254.998 64.1985 254.159 63.5875C253.32 62.9666 252.677 62.1851 252.228 61.2432C251.79 60.3024 251.617 59.304 251.711 58.2481C251.804 57.1923 252.149 56.2482 252.744 55.4161C253.35 54.5849 254.118 53.9568 255.049 53.5319C255.98 53.1069 256.973 52.9498 258.027 53.0606C259.071 53.1703 260.013 53.5306 260.852 54.1416C261.702 54.7536 262.345 55.5301 262.784 56.471C263.223 57.4118 263.395 58.4102 263.302 59.4661C263.208 60.5219 262.864 61.466 262.268 62.2981C261.672 63.1303 260.904 63.7634 259.962 64.1973C259.031 64.6222 258.043 64.7798 256.999 64.6701ZM277.651 66.8401C275.374 66.6008 273.741 65.9317 272.755 64.8327C271.769 63.7237 271.355 62.2727 271.514 60.4798C271.671 58.7067 272.326 57.378 273.478 56.4937C274.641 55.6105 276.365 55.289 278.653 55.5294C280.95 55.7708 282.587 56.4454 283.563 57.5533C284.549 58.6623 284.963 60.1033 284.806 61.8764C284.646 63.6793 283.991 65.0179 282.839 65.8923C281.688 66.7666 279.958 67.0825 277.651 66.8401ZM277.921 63.792C279.025 63.908 279.839 63.7825 280.363 63.4153C280.889 63.0382 281.191 62.4014 281.27 61.5049C281.348 60.6283 281.162 59.9503 280.713 59.4707C280.263 58.9912 279.487 58.6935 278.383 58.5775C277.289 58.4625 276.479 58.5936 275.954 58.9707C275.429 59.3478 275.127 59.9747 275.05 60.8512C274.971 61.7378 275.157 62.4208 275.606 62.9003C276.055 63.3799 276.827 63.6771 277.921 63.792ZM295.3 57.5802L299 57.9689L298.473 63.9156C298.323 65.3778 297.714 66.5353 296.645 67.3881C295.585 68.242 293.897 68.5471 291.58 68.3037C289.233 68.057 287.667 67.4351 286.882 66.4377C286.098 65.4304 285.781 64.1857 285.933 62.7036L286.469 56.6522L290.168 57.041L289.654 62.8532C289.615 63.2915 289.613 63.6532 289.648 63.9384C289.694 64.2147 289.88 64.4906 290.207 64.7663C290.544 65.0429 291.105 65.2226 291.891 65.3051C292.746 65.395 293.383 65.3413 293.802 65.144C294.222 64.9368 294.48 64.6874 294.576 64.3959C294.682 64.1054 294.756 63.7261 294.797 63.258L295.3 57.5802ZM311.849 62.9837C311.773 63.8503 311.494 64.5599 311.013 65.1127C310.543 65.6664 309.783 66.024 308.735 66.1853C308.84 66.3572 308.914 66.4906 308.956 66.5855L311.075 70.2012L307.017 69.7749C306.652 68.9121 306.063 67.684 305.25 66.0906L303.058 65.8602L302.75 69.3266L299.23 68.9567C299.481 67.0326 299.681 65.2288 299.83 63.5454C299.979 61.862 300.099 60.0499 300.191 58.1091L303.711 58.4791L303.71 58.494L306.768 58.8153C308.777 59.0264 310.151 59.4975 310.889 60.2286C311.627 60.9596 311.947 61.878 311.849 62.9837ZM303.456 61.3628L303.305 63.0661L305.319 63.2777C306.164 63.3665 306.803 63.4085 307.235 63.4036C307.678 63.3898 307.989 63.3321 308.169 63.2303C308.349 63.1285 308.448 62.9631 308.469 62.734C308.488 62.5149 308.424 62.3372 308.275 62.2009C308.127 62.0647 307.836 61.9486 307.403 61.8529C306.969 61.7571 306.325 61.6642 305.47 61.5744L303.456 61.3628ZM323.118 60.5333C325.097 60.7412 326.443 61.2396 327.157 62.0283C327.871 62.8071 328.171 63.834 328.058 65.109C327.98 65.9856 327.76 66.7164 327.397 67.3016C327.035 67.8769 326.451 68.298 325.644 68.5652C324.838 68.8223 323.754 68.8793 322.392 68.7362L319.289 68.4101L319.056 71.0398L315.386 70.6542C315.637 68.7302 315.837 66.9264 315.986 65.243C316.135 63.5596 316.255 61.7475 316.347 59.8067L320.017 60.1923L320.015 60.2073L323.118 60.5333ZM321.603 65.7427C322.428 65.8295 323.048 65.8644 323.461 65.8475C323.885 65.8216 324.184 65.7324 324.358 65.5798C324.542 65.4282 324.648 65.1881 324.677 64.8593C324.707 64.5306 324.649 64.2782 324.504 64.1021C324.369 63.9171 324.096 63.7728 323.684 63.6691C323.281 63.5665 322.657 63.4708 321.812 63.382L319.753 63.1657L319.544 65.5264L321.603 65.7427ZM341.263 66.0742C341.186 66.9408 340.907 67.6505 340.427 68.2032C339.956 68.757 339.197 69.1145 338.149 69.2758C338.254 69.4477 338.327 69.5811 338.369 69.676L340.488 73.2918L336.43 72.8654C336.065 72.0026 335.476 70.7745 334.664 69.1811L332.471 68.9507L332.164 72.4171L328.643 72.0472C328.894 70.1231 329.094 68.3194 329.243 66.636C329.392 64.9526 329.512 63.1405 329.604 61.1997L333.125 61.5696L333.123 61.5845L336.181 61.9059C338.19 62.117 339.564 62.588 340.302 63.3191C341.041 64.0502 341.361 64.9685 341.263 66.0742ZM332.869 64.4533L332.718 66.1566L334.732 66.3682C335.578 66.4571 336.216 66.499 336.648 66.4942C337.091 66.4804 337.402 66.4226 337.582 66.3208C337.762 66.2191 337.862 66.0536 337.882 65.8245C337.901 65.6054 337.837 65.4277 337.688 65.2914C337.54 65.1552 337.249 65.0392 336.816 64.9434C336.383 64.8476 335.738 64.7548 334.883 64.6649L332.869 64.4533ZM348.438 74.2779C346.161 74.0386 344.528 73.3695 343.542 72.2705C342.556 71.1615 342.142 69.7106 342.301 67.9176C342.458 66.1445 343.113 64.8158 344.265 63.9316C345.428 63.0483 347.153 62.7269 349.44 62.9672C351.737 63.2086 353.374 63.8832 354.35 64.9912C355.336 66.1001 355.75 67.5411 355.593 69.3142C355.433 71.1171 354.778 72.4558 353.626 73.3301C352.475 74.2044 350.745 74.5204 348.438 74.2779ZM348.708 71.2299C349.812 71.3458 350.626 71.2203 351.15 70.8531C351.676 70.476 351.978 69.8392 352.057 68.9427C352.135 68.0661 351.949 67.3881 351.5 66.9086C351.051 66.429 350.274 66.1313 349.17 66.0153C348.076 65.9003 347.266 66.0314 346.741 66.4085C346.216 66.7856 345.914 67.4125 345.837 68.2891C345.758 69.1756 345.944 69.8586 346.393 70.3381C346.842 70.8177 347.614 71.1149 348.708 71.2299ZM368.361 65.2569L367.894 70.5313C367.729 72.394 367.12 73.7677 366.068 74.6525C365.027 75.5284 363.467 75.8571 361.389 75.6387C360.195 75.5133 359.107 75.223 358.123 74.7678C357.15 74.3136 356.295 73.7663 355.559 73.1259C355.802 72.5282 356.009 71.9517 356.178 71.3965C356.348 70.8413 356.493 70.2281 356.612 69.557C357.564 70.4914 358.458 71.1634 359.295 71.5731C360.132 71.9828 360.943 72.2289 361.729 72.3114C362.544 72.3971 363.142 72.274 363.523 71.942C363.904 71.61 364.139 70.9963 364.228 70.1009L364.329 68.9653C364.472 67.3516 364.548 65.9823 364.557 64.8572L368.361 65.2569ZM372.352 73.8801C376.133 74.2573 378.878 74.4904 380.586 74.5794C380.481 74.9805 380.398 75.3991 380.34 75.8353C380.292 76.2626 380.239 76.805 380.18 77.4624L368.589 76.2445C368.84 74.3204 369.04 72.5166 369.189 70.8332C369.338 69.1498 369.458 67.3377 369.55 65.3969L381.141 66.6149L380.902 69.3193L372.831 68.4713L372.704 69.9057C373.181 69.9658 373.886 70.0449 374.821 70.1432C376.402 70.3093 378.041 70.4513 379.737 70.5692L379.509 73.1392C377.824 72.9017 376.191 72.7 374.609 72.5338C373.675 72.4356 372.968 72.3664 372.49 72.3262L372.352 73.8801ZM388.076 78.4429C385.829 78.2067 384.215 77.5546 383.236 76.4865C382.256 75.4184 381.845 73.9979 382.002 72.2248C382.16 70.4418 382.817 69.0882 383.973 68.1641C385.129 67.24 386.831 66.896 389.078 67.1321C392.221 67.4623 394.229 68.7641 395.101 71.0375C394.179 71.2522 393.089 71.6052 391.831 72.0963C391.592 71.5082 391.171 71.0467 390.568 70.712C389.975 70.3782 389.356 70.1774 388.709 70.1095C387.754 70.0091 387.021 70.1884 386.508 70.6473C385.997 71.0963 385.709 71.6893 385.643 72.4264C385.573 73.2233 385.763 73.9019 386.216 74.4621C386.679 75.0135 387.428 75.3435 388.462 75.4522C389.287 75.5389 389.956 75.4734 390.467 75.2556C390.979 75.0279 391.376 74.6273 391.657 74.0536C392.434 74.5776 393.435 75.1804 394.659 75.862C394.055 77.015 393.15 77.7695 391.944 78.1254C390.738 78.4812 389.449 78.5871 388.076 78.4429ZM409.096 72.7191C407.539 72.5052 406.025 72.316 404.554 72.1513L403.863 79.9508L400.134 79.5589L400.825 71.7595C399.342 71.6137 397.828 71.4848 396.282 71.3726L396.56 68.2349L409.374 69.5814L409.096 72.7191ZM409.727 79.27C410.11 78.7975 410.431 78.3537 410.688 77.9384C410.956 77.5241 411.22 77.0391 411.48 76.4833C412.15 76.9659 412.942 77.3709 413.856 77.6982C414.771 78.0255 415.631 78.2315 416.437 78.3161C417.262 78.4029 417.85 78.3943 418.201 78.2904C418.552 78.1765 418.735 78.0349 418.75 77.8655C418.804 77.2579 417.906 76.8569 416.056 76.6625C414.027 76.4494 412.574 76.0855 411.696 75.571C410.819 75.0466 410.422 74.3112 410.506 73.3649C410.625 72.0202 411.27 71.0876 412.44 70.5671C413.611 70.0466 415.086 69.8799 416.866 70.067C417.901 70.1757 418.948 70.4214 420.008 70.8043C421.079 71.1782 422.032 71.6402 422.866 72.1904C422.52 72.8175 422.145 73.5875 421.743 74.5004C421.666 74.6933 421.603 74.8375 421.554 74.9329C421.083 74.4713 420.348 74.0521 419.347 73.6755C418.347 73.289 417.455 73.0544 416.669 72.9719C415.724 72.8726 415.082 72.8705 414.742 72.9655C414.404 73.0505 414.224 73.2126 414.203 73.4517C414.181 73.6907 414.388 73.9085 414.822 74.1049C415.267 74.2924 415.918 74.4311 416.773 74.521C418.881 74.7425 420.391 75.1475 421.303 75.7359C422.215 76.3144 422.627 77.1016 422.539 78.0977C422.415 79.4923 421.819 80.445 420.75 80.956C419.682 81.4571 418.118 81.5994 416.06 81.3831C414.956 81.2671 413.842 81.0295 412.72 80.6703C411.598 80.3011 410.601 79.8343 409.727 79.27ZM439.218 83.8165C438.164 83.7057 437.217 83.3448 436.378 82.7339C435.54 82.1129 434.896 81.3315 434.448 80.3896C434.009 79.4487 433.837 78.4504 433.93 77.3945C434.024 76.3386 434.368 75.3946 434.964 74.5624C435.57 73.7313 436.338 73.1032 437.269 72.6782C438.2 72.2533 439.192 72.0962 440.247 72.2069C441.291 72.3167 442.233 72.677 443.072 73.288C443.921 73.9 444.565 74.6764 445.004 75.6173C445.442 76.5582 445.615 77.5566 445.521 78.6124C445.428 79.6683 445.083 80.6123 444.487 81.4445C443.892 82.2767 443.123 82.9097 442.181 83.3436C441.25 83.7686 440.263 83.9262 439.218 83.8165ZM464.347 82.1891L465.723 75.5021L469.363 75.8845L466.403 86.522L461.823 86.0408L461.345 79.8829L459.63 85.8104L455.244 85.3496L454.206 74.292L457.846 74.6745L458.015 81.4333L459.8 74.8798L463.783 75.2983L464.347 82.1891ZM471.92 87.4034L468.221 87.0146L472.045 76.3021L475.745 76.6909L471.92 87.4034ZM478.17 88.0601L474.47 87.6713L478.295 76.9588L481.995 77.3476L478.17 88.0601ZM493.193 85.2199L494.568 78.5329L498.208 78.9154L495.248 89.5529L490.668 89.0717L490.19 82.9138L488.475 88.8413L484.089 88.3804L483.051 77.3228L486.691 77.7053L486.86 84.4641L488.645 77.9106L492.629 78.3292L493.193 85.2199ZM511.273 91.3875C510.219 91.2767 509.272 90.9158 508.433 90.3049C507.594 89.6839 506.951 88.9025 506.502 87.9606C506.064 87.0197 505.891 86.0213 505.985 84.9655C506.078 83.9096 506.423 82.9656 507.018 82.1334C507.624 81.3023 508.392 80.6742 509.323 80.2492C510.254 79.8243 511.247 79.6672 512.301 79.7779C513.345 79.8876 514.287 80.248 515.126 80.859C515.976 81.471 516.62 82.2474 517.058 83.1883C517.497 84.1292 517.669 85.1275 517.576 86.1834C517.482 87.2393 517.138 88.1833 516.542 89.0155C515.946 89.8477 515.178 90.4807 514.236 90.9146C513.305 91.3396 512.317 91.4972 511.273 91.3875ZM531.925 93.5575C529.648 93.3182 528.015 92.649 527.029 91.55C526.043 90.4411 525.629 88.9901 525.788 87.1971C525.945 85.424 526.6 84.0954 527.752 83.2111C528.915 82.3278 530.639 82.0064 532.927 82.2467C535.224 82.4881 536.861 83.1628 537.837 84.2707C538.823 85.3797 539.237 86.8207 539.08 88.5937C538.92 90.3967 538.265 91.7353 537.113 92.6096C535.962 93.4839 534.232 93.7999 531.925 93.5575ZM532.195 90.5094C533.299 90.6254 534.113 90.4998 534.637 90.1326C535.163 89.7555 535.465 89.1187 535.544 88.2222C535.622 87.3457 535.436 86.6676 534.987 86.1881C534.537 85.7086 533.761 85.4108 532.657 85.2948C531.563 85.1799 530.753 85.3109 530.228 85.6881C529.703 86.0652 529.401 86.692 529.324 87.5686C529.245 88.4551 529.431 89.1382 529.88 89.6177C530.329 90.0972 531.101 90.3944 532.195 90.5094ZM549.574 84.2975L553.274 84.6863L552.747 90.633C552.597 92.0952 551.988 93.2526 550.919 94.1055C549.859 94.9593 548.171 95.2645 545.854 95.021C543.507 94.7744 541.941 94.1524 541.156 93.155C540.372 92.1477 540.055 90.903 540.207 89.4209L540.743 83.3696L544.442 83.7583L543.928 89.5706C543.889 90.0089 543.887 90.3706 543.922 90.6558C543.968 90.932 544.154 91.208 544.481 91.4836C544.818 91.7603 545.379 91.9399 546.165 92.0225C547.02 92.1123 547.657 92.0586 548.076 91.8614C548.496 91.6541 548.754 91.4048 548.85 91.1133C548.956 90.8228 549.03 90.4435 549.071 89.9753L549.574 84.2975ZM566.124 89.701C566.047 90.5676 565.768 91.2773 565.287 91.83C564.817 92.3838 564.057 92.7413 563.009 92.9026C563.114 93.0745 563.188 93.2079 563.23 93.3028L565.349 96.9186L561.291 96.4922C560.926 95.6294 560.337 94.4013 559.524 92.8079L557.332 92.5775L557.025 96.0439L553.504 95.674C553.755 93.7499 553.955 91.9462 554.104 90.2628C554.253 88.5794 554.373 86.7673 554.465 84.8265L557.985 85.1964L557.984 85.2113L561.042 85.5327C563.051 85.7438 564.425 86.2148 565.163 86.9459C565.901 87.677 566.221 88.5953 566.124 89.701ZM557.73 88.0801L557.579 89.7834L559.593 89.9951C560.438 90.0839 561.077 90.1258 561.509 90.121C561.952 90.1072 562.263 90.0494 562.443 89.9476C562.623 89.8459 562.723 89.6804 562.743 89.4513C562.762 89.2322 562.698 89.0545 562.549 88.9183C562.401 88.782 562.11 88.666 561.677 88.5702C561.243 88.4744 560.599 88.3816 559.744 88.2917L557.73 88.0801ZM577.392 87.2506C579.371 87.4586 580.718 87.9569 581.431 88.7457C582.145 89.5244 582.445 90.5513 582.332 91.8263C582.254 92.7029 582.034 93.4338 581.671 94.019C581.309 94.5942 580.725 95.0154 579.918 95.2825C579.112 95.5397 578.028 95.5967 576.666 95.4535L573.563 95.1275L573.33 97.7572L569.66 97.3716C569.911 95.4475 570.111 93.6438 570.26 91.9604C570.409 90.277 570.529 88.4649 570.621 86.5241L574.291 86.9097L574.289 86.9246L577.392 87.2506ZM575.877 92.4601C576.702 92.5468 577.322 92.5817 577.735 92.5648C578.159 92.539 578.458 92.4497 578.632 92.2971C578.816 92.1455 578.922 91.9054 578.951 91.5767C578.981 91.248 578.923 90.9956 578.778 90.8195C578.643 90.6345 578.37 90.4901 577.958 90.3865C577.555 90.2839 576.931 90.1881 576.086 90.0993L574.027 89.883L573.818 92.2438L575.877 92.4601ZM595.537 92.7915C595.46 93.6581 595.181 94.3678 594.701 94.9205C594.23 95.4743 593.471 95.8319 592.423 95.9932C592.528 96.1651 592.601 96.2985 592.643 96.3934L594.762 100.009L590.704 99.5828C590.339 98.72 589.75 97.4919 588.938 95.8985L586.745 95.668L586.438 99.1345L582.917 98.7646C583.168 96.8405 583.368 95.0367 583.517 93.3533C583.666 91.6699 583.786 89.8578 583.878 87.917L587.399 88.2869L587.397 88.3019L590.455 88.6232C592.464 88.8343 593.838 89.3054 594.576 90.0364C595.315 90.7675 595.635 91.6859 595.537 92.7915ZM587.143 91.1707L586.992 92.874L589.006 93.0856C589.852 93.1744 590.49 93.2164 590.922 93.2115C591.365 93.1977 591.677 93.14 591.856 93.0382C592.036 92.9364 592.136 92.771 592.156 92.5419C592.175 92.3227 592.111 92.145 591.962 92.0088C591.814 91.8725 591.523 91.7565 591.09 91.6607C590.657 91.565 590.012 91.4721 589.157 91.3823L587.143 91.1707ZM602.712 100.995C600.435 100.756 598.803 100.087 597.816 98.9878C596.83 97.8789 596.416 96.4279 596.575 94.6349C596.732 92.8619 597.387 91.5332 598.539 90.6489C599.702 89.7657 601.427 89.4442 603.714 89.6846C606.011 89.9259 607.648 90.6006 608.624 91.7085C609.61 92.8175 610.024 94.2585 609.867 96.0315C609.707 97.8345 609.052 99.1731 607.9 100.047C606.749 100.922 605.019 101.238 602.712 100.995ZM602.982 97.9472C604.086 98.0632 604.9 97.9376 605.425 97.5705C605.95 97.1933 606.252 96.5565 606.332 95.66C606.409 94.7835 606.223 94.1054 605.774 93.6259C605.325 93.1464 604.548 92.8486 603.444 92.7326C602.35 92.6177 601.54 92.7488 601.015 93.1259C600.49 93.503 600.188 94.1298 600.111 95.0064C600.032 95.8929 600.218 96.576 600.667 97.0555C601.116 97.535 601.888 97.8323 602.982 97.9472ZM622.635 91.9743L622.168 97.2486C622.003 99.1113 621.394 100.485 620.342 101.37C619.301 102.246 617.741 102.574 615.663 102.356C614.469 102.231 613.381 101.94 612.397 101.485C611.424 101.031 610.569 100.484 609.833 99.8433C610.076 99.2456 610.283 98.6691 610.452 98.1138C610.622 97.5586 610.767 96.9454 610.886 96.2744C611.838 97.2088 612.732 97.8808 613.569 98.2905C614.406 98.7001 615.217 98.9462 616.003 99.0288C616.818 99.1145 617.416 98.9913 617.797 98.6593C618.178 98.3274 618.413 97.7136 618.502 96.8182L618.603 95.6826C618.746 94.069 618.822 92.6996 618.831 91.5746L622.635 91.9743ZM626.626 100.597C630.407 100.975 633.152 101.208 634.86 101.297C634.755 101.698 634.672 102.116 634.614 102.553C634.566 102.98 634.513 103.522 634.454 104.18L622.863 102.962C623.114 101.038 623.314 99.234 623.463 97.5506C623.612 95.8672 623.733 94.0551 623.824 92.1143L635.415 93.3322L635.176 96.0366L627.105 95.1886L626.978 96.623C627.455 96.6831 628.16 96.7623 629.095 96.8605C630.676 97.0267 632.315 97.1687 634.011 97.2866L633.783 99.8565C632.098 99.6191 630.465 99.4173 628.883 99.2512C627.949 99.1529 627.242 99.0837 626.764 99.0435L626.626 100.597ZM642.351 105.16C640.103 104.924 638.489 104.272 637.51 103.204C636.53 102.136 636.119 100.715 636.276 98.9422C636.434 97.1591 637.091 95.8056 638.247 94.8814C639.403 93.9573 641.105 93.6133 643.352 93.8495C646.495 94.1797 648.503 95.4815 649.375 97.7548C648.453 97.9696 647.363 98.3225 646.105 98.8137C645.866 98.2255 645.445 97.7641 644.842 97.4293C644.249 97.0956 643.63 96.8947 642.983 96.8268C642.029 96.7265 641.295 96.9058 640.783 97.3647C640.271 97.8136 639.983 98.4066 639.917 99.1438C639.847 99.9406 640.038 100.619 640.49 101.179C640.953 101.731 641.702 102.061 642.736 102.169C643.561 102.256 644.23 102.191 644.741 101.973C645.253 101.745 645.65 101.345 645.931 100.771C646.708 101.295 647.709 101.898 648.933 102.579C648.329 103.732 647.424 104.487 646.218 104.843C645.012 105.199 643.723 105.304 642.351 105.16ZM663.37 99.4364C661.813 99.2226 660.299 99.0333 658.828 98.8687L658.137 106.668L654.408 106.276L655.099 98.4768C653.616 98.3311 652.102 98.2021 650.556 98.09L650.834 94.9523L663.648 96.2987L663.37 99.4364ZM664.001 105.987C664.384 105.515 664.705 105.071 664.962 104.656C665.23 104.241 665.494 103.756 665.754 103.201C666.424 103.683 667.216 104.088 668.131 104.416C669.045 104.743 669.905 104.949 670.711 105.033C671.536 105.12 672.124 105.112 672.475 105.008C672.826 104.894 673.009 104.752 673.024 104.583C673.078 103.975 672.18 103.574 670.33 103.38C668.301 103.167 666.848 102.803 665.97 102.288C665.093 101.764 664.696 101.029 664.78 100.082C664.899 98.7375 665.544 97.8049 666.714 97.2844C667.885 96.764 669.36 96.5973 671.14 96.7843C672.175 96.893 673.222 97.1388 674.282 97.5216C675.353 97.8955 676.306 98.3576 677.14 98.9078C676.794 99.5349 676.419 100.305 676.017 101.218C675.94 101.411 675.877 101.555 675.829 101.65C675.358 101.189 674.622 100.769 673.621 100.393C672.622 100.006 671.729 99.7718 670.943 99.6892C669.998 99.59 669.356 99.5878 669.016 99.6828C668.678 99.7679 668.498 99.9299 668.477 100.169C668.455 100.408 668.662 100.626 669.096 100.822C669.541 101.01 670.192 101.148 671.047 101.238C673.155 101.46 674.665 101.865 675.577 102.453C676.489 103.032 676.901 103.819 676.813 104.815C676.689 106.21 676.093 107.162 675.024 107.673C673.956 108.174 672.392 108.317 670.334 108.1C669.23 107.984 668.116 107.747 666.994 107.388C665.872 107.018 664.875 106.552 664.001 105.987ZM693.492 110.534C692.438 110.423 691.491 110.062 690.652 109.451C689.814 108.83 689.17 108.049 688.722 107.107C688.283 106.166 688.111 105.168 688.204 104.112C688.298 103.056 688.642 102.112 689.238 101.28C689.844 100.449 690.612 99.8206 691.543 99.3956C692.474 98.9706 693.467 98.8135 694.521 98.9243C695.565 99.034 696.507 99.3944 697.346 100.005C698.195 100.617 698.839 101.394 699.278 102.335C699.716 103.276 699.889 104.274 699.795 105.33C699.702 106.386 699.357 107.33 698.762 108.162C698.166 108.994 697.397 109.627 696.455 110.061C695.524 110.486 694.537 110.644 693.492 110.534ZM718.621 108.906L719.997 102.219L723.637 102.602L720.677 113.239L716.097 112.758L715.619 106.6L713.904 112.528L709.518 112.067L708.48 101.009L712.12 101.392L712.289 108.151L714.074 101.597L718.057 102.016L718.621 108.906ZM726.194 114.121L722.495 113.732L726.319 103.019L730.019 103.408L726.194 114.121ZM732.444 114.777L728.744 114.389L732.569 103.676L736.269 104.065L732.444 114.777ZM747.467 111.937L748.842 105.25L752.482 105.633L749.522 116.27L744.942 115.789L744.464 109.631L742.749 115.559L738.363 115.098L737.325 104.04L740.965 104.423L741.134 111.181L742.919 104.628L746.903 105.047L747.467 111.937ZM765.547 118.105C764.493 117.994 763.546 117.633 762.707 117.022C761.868 116.401 761.225 115.62 760.776 114.678C760.338 113.737 760.165 112.739 760.259 111.683C760.352 110.627 760.697 109.683 761.292 108.851C761.898 108.02 762.666 107.392 763.597 106.967C764.528 106.542 765.521 106.385 766.575 106.495C767.619 106.605 768.561 106.965 769.4 107.576C770.25 108.188 770.894 108.965 771.332 109.906C771.771 110.847 771.943 111.845 771.85 112.901C771.756 113.957 771.412 114.901 770.816 115.733C770.22 116.565 769.452 117.198 768.51 117.632C767.579 118.057 766.591 118.215 765.547 118.105ZM786.199 120.275C783.922 120.036 782.289 119.366 781.303 118.267C780.317 117.158 779.903 115.707 780.062 113.914C780.219 112.141 780.874 110.813 782.026 109.928C783.189 109.045 784.914 108.724 787.201 108.964C789.498 109.205 791.135 109.88 792.111 110.988C793.097 112.097 793.511 113.538 793.354 115.311C793.194 117.114 792.539 118.453 791.387 119.327C790.236 120.201 788.506 120.517 786.199 120.275ZM786.469 117.227C787.573 117.343 788.387 117.217 788.911 116.85C789.437 116.473 789.739 115.836 789.818 114.94C789.896 114.063 789.71 113.385 789.261 112.905C788.811 112.426 788.035 112.128 786.931 112.012C785.837 111.897 785.027 112.028 784.502 112.405C783.977 112.783 783.675 113.409 783.598 114.286C783.519 115.172 783.705 115.855 784.154 116.335C784.603 116.815 785.375 117.112 786.469 117.227ZM803.848 111.015L807.548 111.404L807.021 117.35C806.872 118.813 806.262 119.97 805.193 120.823C804.133 121.677 802.445 121.982 800.128 121.738C797.781 121.492 796.215 120.87 795.43 119.872C794.646 118.865 794.329 117.62 794.481 116.138L795.017 110.087L798.716 110.476L798.202 116.288C798.163 116.726 798.161 117.088 798.196 117.373C798.242 117.649 798.428 117.925 798.755 118.201C799.092 118.478 799.653 118.657 800.439 118.74C801.294 118.83 801.931 118.776 802.35 118.579C802.77 118.371 803.028 118.122 803.124 117.831C803.23 117.54 803.304 117.161 803.345 116.693L803.848 111.015ZM820.398 116.418C820.321 117.285 820.042 117.995 819.562 118.547C819.091 119.101 818.331 119.459 817.283 119.62C817.389 119.792 817.462 119.925 817.504 120.02L819.623 123.636L815.565 123.21C815.2 122.347 814.611 121.119 813.799 119.525L811.606 119.295L811.299 122.761L807.778 122.391C808.029 120.467 808.229 118.664 808.378 116.98C808.527 115.297 808.647 113.485 808.739 111.544L812.259 111.914L812.258 111.929L815.316 112.25C817.325 112.461 818.699 112.932 819.437 113.663C820.175 114.394 820.495 115.313 820.398 116.418ZM812.004 114.797L811.853 116.501L813.867 116.712C814.712 116.801 815.351 116.843 815.783 116.838C816.226 116.825 816.537 116.767 816.717 116.665C816.897 116.563 816.997 116.398 817.017 116.169C817.036 115.95 816.972 115.772 816.823 115.636C816.675 115.499 816.384 115.383 815.951 115.288C815.517 115.192 814.873 115.099 814.018 115.009L812.004 114.797ZM831.666 113.968C833.645 114.176 834.992 114.674 835.705 115.463C836.419 116.242 836.719 117.269 836.606 118.544C836.529 119.42 836.308 120.151 835.945 120.736C835.583 121.312 834.999 121.733 834.192 122C833.386 122.257 832.302 122.314 830.94 122.171L827.837 121.845L827.604 124.475L823.934 124.089C824.185 122.165 824.385 120.361 824.534 118.678C824.683 116.994 824.803 115.182 824.895 113.241L828.565 113.627L828.563 113.642L831.666 113.968ZM830.151 119.177C830.976 119.264 831.596 119.299 832.009 119.282C832.433 119.256 832.732 119.167 832.906 119.014C833.09 118.863 833.196 118.623 833.225 118.294C833.255 117.965 833.197 117.713 833.052 117.537C832.917 117.352 832.644 117.207 832.232 117.104C831.829 117.001 831.205 116.905 830.36 116.817L828.301 116.6L828.092 118.961L830.151 119.177ZM849.811 119.509C849.734 120.375 849.455 121.085 848.975 121.638C848.504 122.192 847.745 122.549 846.697 122.711C846.802 122.882 846.875 123.016 846.917 123.111L849.036 126.726L844.978 126.3C844.613 125.437 844.024 124.209 843.212 122.616L841.019 122.385L840.712 125.852L837.191 125.482C837.442 123.558 837.642 121.754 837.791 120.071C837.94 118.387 838.06 116.575 838.152 114.634L841.673 115.004L841.671 115.019L844.73 115.341C846.738 115.552 848.112 116.023 848.85 116.754C849.589 117.485 849.909 118.403 849.811 119.509ZM841.417 117.888L841.266 119.591L843.28 119.803C844.126 119.892 844.764 119.934 845.196 119.929C845.639 119.915 845.951 119.857 846.13 119.756C846.31 119.654 846.41 119.488 846.43 119.259C846.45 119.04 846.385 118.862 846.236 118.726C846.088 118.59 845.797 118.474 845.364 118.378C844.931 118.282 844.286 118.189 843.431 118.1L841.417 117.888ZM856.986 127.713C854.709 127.473 853.077 126.804 852.09 125.705C851.104 124.596 850.69 123.145 850.849 121.352C851.006 119.579 851.661 118.251 852.813 117.366C853.976 116.483 855.701 116.162 857.988 116.402C860.285 116.643 861.922 117.318 862.898 118.426C863.884 119.535 864.298 120.976 864.141 122.749C863.981 124.552 863.326 125.89 862.174 126.765C861.023 127.639 859.293 127.955 856.986 127.713ZM857.256 124.665C858.36 124.781 859.174 124.655 859.699 124.288C860.224 123.911 860.526 123.274 860.606 122.377C860.683 121.501 860.497 120.823 860.048 120.343C859.599 119.864 858.822 119.566 857.718 119.45C856.624 119.335 855.814 119.466 855.289 119.843C854.764 120.22 854.462 120.847 854.385 121.724C854.306 122.61 854.492 123.293 854.941 123.773C855.39 124.252 856.162 124.55 857.256 124.665ZM876.909 118.692L876.442 123.966C876.277 125.829 875.669 127.202 874.616 128.087C873.575 128.963 872.015 129.292 869.937 129.073C868.743 128.948 867.655 128.658 866.671 128.202C865.698 127.748 864.843 127.201 864.107 126.561C864.35 125.963 864.557 125.386 864.727 124.831C864.896 124.276 865.041 123.663 865.16 122.992C866.112 123.926 867.006 124.598 867.843 125.008C868.68 125.417 869.491 125.664 870.277 125.746C871.092 125.832 871.69 125.709 872.071 125.377C872.452 125.045 872.687 124.431 872.776 123.536L872.877 122.4C873.02 120.786 873.096 119.417 873.105 118.292L876.909 118.692ZM880.9 127.315C884.681 127.692 887.426 127.925 889.134 128.014C889.029 128.415 888.946 128.834 888.888 129.27C888.84 129.697 888.787 130.24 888.729 130.897L877.137 129.679C877.388 127.755 877.588 125.951 877.737 124.268C877.886 122.585 878.007 120.772 878.098 118.832L889.689 120.05L889.45 122.754L881.379 121.906L881.252 123.34C881.729 123.4 882.434 123.48 883.369 123.578C884.95 123.744 886.589 123.886 888.285 124.004L888.057 126.574C886.372 126.336 884.739 126.135 883.157 125.969C882.223 125.87 881.516 125.801 881.038 125.761L880.9 127.315ZM896.625 131.878C894.377 131.641 892.763 130.989 891.784 129.921C890.805 128.853 890.393 127.433 890.55 125.66C890.708 123.876 891.365 122.523 892.521 121.599C893.677 120.675 895.379 120.331 897.626 120.567C900.769 120.897 902.777 122.199 903.649 124.472C902.727 124.687 901.637 125.04 900.379 125.531C900.14 124.943 899.719 124.481 899.116 124.147C898.523 123.813 897.904 123.612 897.257 123.544C896.303 123.444 895.569 123.623 895.057 124.082C894.545 124.531 894.257 125.124 894.191 125.861C894.121 126.658 894.312 127.337 894.764 127.897C895.227 128.448 895.976 128.778 897.01 128.887C897.835 128.974 898.504 128.908 899.015 128.69C899.527 128.463 899.924 128.062 900.205 127.488C900.982 128.012 901.983 128.615 903.207 129.297C902.603 130.45 901.698 131.204 900.492 131.56C899.286 131.916 897.997 132.022 896.625 131.878ZM917.644 126.154C916.087 125.94 914.573 125.751 913.102 125.586L912.411 133.386L908.682 132.994L909.373 125.194C907.89 125.048 906.376 124.919 904.83 124.807L905.108 121.67L917.922 123.016L917.644 126.154ZM918.275 132.705C918.658 132.232 918.979 131.788 919.236 131.373C919.504 130.959 919.768 130.474 920.028 129.918C920.698 130.401 921.49 130.806 922.405 131.133C923.319 131.46 924.179 131.666 924.985 131.751C925.81 131.838 926.398 131.829 926.749 131.725C927.1 131.611 927.283 131.47 927.298 131.3C927.352 130.693 926.454 130.292 924.604 130.097C922.575 129.884 921.122 129.52 920.244 129.006C919.367 128.481 918.97 127.746 919.054 126.8C919.173 125.455 919.818 124.522 920.988 124.002C922.159 123.481 923.634 123.315 925.414 123.502C926.449 123.61 927.496 123.856 928.556 124.239C929.627 124.613 930.58 125.075 931.415 125.625C931.068 126.252 930.694 127.022 930.291 127.935C930.214 128.128 930.151 128.272 930.103 128.368C929.632 127.906 928.896 127.487 927.895 127.11C926.896 126.724 926.003 126.489 925.217 126.407C924.272 126.307 923.63 126.305 923.291 126.4C922.952 126.485 922.772 126.647 922.751 126.886C922.729 127.125 922.936 127.343 923.37 127.54C923.815 127.727 924.466 127.866 925.321 127.956C927.429 128.177 928.939 128.582 929.851 129.171C930.763 129.749 931.175 130.536 931.087 131.532C930.963 132.927 930.367 133.88 929.298 134.391C928.23 134.892 926.666 135.034 924.608 134.818C923.504 134.702 922.391 134.464 921.268 134.105C920.146 133.736 919.149 133.269 918.275 132.705ZM947.766 137.251C946.712 137.14 945.765 136.78 944.926 136.169C944.088 135.548 943.444 134.766 942.996 133.824C942.557 132.883 942.385 131.885 942.478 130.829C942.572 129.773 942.916 128.829 943.512 127.997C944.118 127.166 944.886 126.538 945.817 126.113C946.748 125.688 947.741 125.531 948.795 125.642C949.839 125.751 950.781 126.112 951.62 126.723C952.469 127.335 953.113 128.111 953.552 129.052C953.99 129.993 954.163 130.991 954.069 132.047C953.976 133.103 953.631 134.047 953.036 134.879C952.44 135.711 951.671 136.344 950.729 136.778C949.798 137.203 948.811 137.361 947.766 137.251ZM972.896 135.624L974.271 128.937L977.911 129.319L974.951 139.957L970.371 139.476L969.893 133.318L968.178 139.245L963.792 138.784L962.754 127.727L966.394 128.109L966.563 134.868L968.348 128.314L972.331 128.733L972.896 135.624ZM980.468 140.838L976.769 140.449L980.593 129.737L984.293 130.126L980.468 140.838ZM986.718 141.495L983.018 141.106L986.843 130.394L990.543 130.782L986.718 141.495ZM1001.74 138.655L1003.12 131.968L1006.76 132.35L1003.8 142.988L999.216 142.506L998.738 136.348L997.023 142.276L992.637 141.815L991.599 130.758L995.239 131.14L995.408 137.899L997.194 131.345L1001.18 131.764L1001.74 138.655ZM1019.82 144.822C1018.77 144.711 1017.82 144.351 1016.98 143.74C1016.14 143.119 1015.5 142.337 1015.05 141.395C1014.61 140.454 1014.44 139.456 1014.53 138.4C1014.63 137.344 1014.97 136.4 1015.57 135.568C1016.17 134.737 1016.94 134.109 1017.87 133.684C1018.8 133.259 1019.8 133.102 1020.85 133.213C1021.89 133.322 1022.84 133.683 1023.67 134.294C1024.52 134.906 1025.17 135.682 1025.61 136.623C1026.04 137.564 1026.22 138.562 1026.12 139.618C1026.03 140.674 1025.69 141.618 1025.09 142.45C1024.49 143.282 1023.73 143.915 1022.78 144.349C1021.85 144.774 1020.87 144.932 1019.82 144.822ZM1040.47 146.992C1038.2 146.753 1036.56 146.084 1035.58 144.985C1034.59 143.876 1034.18 142.425 1034.34 140.632C1034.49 138.859 1035.15 137.53 1036.3 136.646C1037.46 135.763 1039.19 135.441 1041.47 135.681C1043.77 135.923 1045.41 136.597 1046.38 137.705C1047.37 138.814 1047.79 140.255 1047.63 142.028C1047.47 143.831 1046.81 145.17 1045.66 146.044C1044.51 146.919 1042.78 147.235 1040.47 146.992ZM1040.74 143.944C1041.85 144.06 1042.66 143.934 1043.19 143.567C1043.71 143.19 1044.01 142.553 1044.09 141.657C1044.17 140.78 1043.98 140.102 1043.53 139.623C1043.09 139.143 1042.31 138.845 1041.2 138.729C1040.11 138.615 1039.3 138.746 1038.78 139.123C1038.25 139.5 1037.95 140.127 1037.87 141.003C1037.79 141.89 1037.98 142.573 1038.43 143.052C1038.88 143.532 1039.65 143.829 1040.74 143.944ZM1058.12 137.732L1061.82 138.121L1061.3 144.068C1061.15 145.53 1060.54 146.687 1059.47 147.54C1058.41 148.394 1056.72 148.699 1054.4 148.456C1052.05 148.209 1050.49 147.587 1049.7 146.59C1048.92 145.582 1048.6 144.338 1048.75 142.856L1049.29 136.804L1052.99 137.193L1052.48 143.005C1052.44 143.444 1052.43 143.805 1052.47 144.09C1052.52 144.367 1052.7 144.643 1053.03 144.918C1053.37 145.195 1053.93 145.375 1054.71 145.457C1055.57 145.547 1056.21 145.493 1056.62 145.296C1057.04 145.089 1057.3 144.839 1057.4 144.548C1057.5 144.257 1057.58 143.878 1057.62 143.41L1058.12 137.732ZM1074.67 143.136C1074.59 144.002 1074.32 144.712 1073.84 145.265C1073.36 145.818 1072.61 146.176 1071.56 146.337C1071.66 146.509 1071.74 146.643 1071.78 146.738L1073.9 150.353L1069.84 149.927C1069.47 149.064 1068.89 147.836 1068.07 146.243L1065.88 146.012L1065.57 149.479L1062.05 149.109C1062.3 147.185 1062.5 145.381 1062.65 143.697C1062.8 142.014 1062.92 140.202 1063.01 138.261L1066.53 138.631L1066.53 138.646L1069.59 138.967C1071.6 139.178 1072.97 139.65 1073.71 140.381C1074.45 141.112 1074.77 142.03 1074.67 143.136ZM1066.28 141.515L1066.13 143.218L1068.14 143.43C1068.99 143.519 1069.63 143.561 1070.06 143.556C1070.5 143.542 1070.81 143.484 1070.99 143.382C1071.17 143.281 1071.27 143.115 1071.29 142.886C1071.31 142.667 1071.25 142.489 1071.1 142.353C1070.95 142.217 1070.66 142.101 1070.22 142.005C1069.79 141.909 1069.15 141.816 1068.29 141.726L1066.28 141.515ZM1085.94 140.685C1087.92 140.893 1089.27 141.392 1089.98 142.18C1090.69 142.959 1090.99 143.986 1090.88 145.261C1090.8 146.138 1090.58 146.868 1090.22 147.454C1089.86 148.029 1089.27 148.45 1088.47 148.717C1087.66 148.974 1086.58 149.031 1085.21 148.888L1082.11 148.562L1081.88 151.192L1078.21 150.806C1078.46 148.882 1078.66 147.078 1078.81 145.395C1078.96 143.712 1079.08 141.9 1079.17 139.959L1082.84 140.344L1082.84 140.359L1085.94 140.685ZM1084.42 145.895C1085.25 145.982 1085.87 146.016 1086.28 145.999C1086.71 145.974 1087.01 145.884 1087.18 145.732C1087.36 145.58 1087.47 145.34 1087.5 145.011C1087.53 144.683 1087.47 144.43 1087.33 144.254C1087.19 144.069 1086.92 143.925 1086.51 143.821C1086.1 143.719 1085.48 143.623 1084.63 143.534L1082.58 143.318L1082.37 145.678L1084.42 145.895ZM1104.08 146.226C1104.01 147.093 1103.73 147.803 1103.25 148.355C1102.78 148.909 1102.02 149.267 1100.97 149.428C1101.08 149.6 1101.15 149.733 1101.19 149.828L1103.31 153.444L1099.25 153.017C1098.89 152.155 1098.3 150.927 1097.49 149.333L1095.29 149.103L1094.99 152.569L1091.47 152.199C1091.72 150.275 1091.92 148.471 1092.07 146.788C1092.21 145.105 1092.33 143.293 1092.43 141.352L1095.95 141.722L1095.95 141.737L1099 142.058C1101.01 142.269 1102.39 142.74 1103.12 143.471C1103.86 144.202 1104.18 145.121 1104.08 146.226ZM1095.69 144.605L1095.54 146.309L1097.55 146.52C1098.4 146.609 1099.04 146.651 1099.47 146.646C1099.91 146.632 1100.22 146.575 1100.4 146.473C1100.58 146.371 1100.68 146.206 1100.7 145.977C1100.72 145.757 1100.66 145.58 1100.51 145.443C1100.36 145.307 1100.07 145.191 1099.64 145.095C1099.2 145 1098.56 144.907 1097.71 144.817L1095.69 144.605ZM1111.26 154.43C1108.98 154.191 1107.35 153.522 1106.36 152.423C1105.38 151.314 1104.96 149.863 1105.12 148.07C1105.28 146.297 1105.94 144.968 1107.09 144.084C1108.25 143.2 1109.97 142.879 1112.26 143.119C1114.56 143.361 1116.2 144.035 1117.17 145.143C1118.16 146.252 1118.57 147.693 1118.42 149.466C1118.26 151.269 1117.6 152.608 1116.45 153.482C1115.3 154.356 1113.57 154.672 1111.26 154.43ZM1111.53 151.382C1112.63 151.498 1113.45 151.372 1113.97 151.005C1114.5 150.628 1114.8 149.991 1114.88 149.095C1114.96 148.218 1114.77 147.54 1114.32 147.061C1113.87 146.581 1113.1 146.283 1111.99 146.167C1110.9 146.052 1110.09 146.183 1109.56 146.561C1109.04 146.938 1108.74 147.565 1108.66 148.441C1108.58 149.328 1108.77 150.011 1109.22 150.49C1109.66 150.97 1110.44 151.267 1111.53 151.382ZM1131.18 145.409L1130.72 150.683C1130.55 152.546 1129.94 153.92 1128.89 154.805C1127.85 155.68 1126.29 156.009 1124.21 155.791C1123.02 155.665 1121.93 155.375 1120.95 154.92C1119.97 154.466 1119.12 153.918 1118.38 153.278C1118.62 152.68 1118.83 152.104 1119 151.549C1119.17 150.993 1119.31 150.38 1119.43 149.709C1120.39 150.643 1121.28 151.315 1122.12 151.725C1122.95 152.135 1123.77 152.381 1124.55 152.463C1125.37 152.549 1125.96 152.426 1126.35 152.094C1126.73 151.762 1126.96 151.148 1127.05 150.253L1127.15 149.117C1127.29 147.504 1127.37 146.134 1127.38 145.009L1131.18 145.409ZM1135.17 154.032C1138.96 154.409 1141.7 154.642 1143.41 154.731C1143.3 155.133 1143.22 155.551 1143.16 155.987C1143.11 156.415 1143.06 156.957 1143 157.614L1131.41 156.397C1131.66 154.472 1131.86 152.669 1132.01 150.985C1132.16 149.302 1132.28 147.49 1132.37 145.549L1143.96 146.767L1143.72 149.471L1135.65 148.623L1135.53 150.058C1136 150.118 1136.71 150.197 1137.64 150.295C1139.22 150.461 1140.86 150.603 1142.56 150.721L1142.33 153.291C1140.65 153.054 1139.01 152.852 1137.43 152.686C1136.5 152.588 1135.79 152.518 1135.31 152.478L1135.17 154.032ZM1150.9 158.595C1148.65 158.359 1147.04 157.707 1146.06 156.639C1145.08 155.57 1144.67 154.15 1144.82 152.377C1144.98 150.594 1145.64 149.24 1146.8 148.316C1147.95 147.392 1149.65 147.048 1151.9 147.284C1155.04 147.614 1157.05 148.916 1157.92 151.19C1157 151.404 1155.91 151.757 1154.65 152.248C1154.41 151.66 1153.99 151.199 1153.39 150.864C1152.8 150.53 1152.18 150.329 1151.53 150.262C1150.58 150.161 1149.84 150.34 1149.33 150.799C1148.82 151.248 1148.53 151.841 1148.47 152.578C1148.39 153.375 1148.59 154.054 1149.04 154.614C1149.5 155.166 1150.25 155.496 1151.28 155.604C1152.11 155.691 1152.78 155.625 1153.29 155.408C1153.8 155.18 1154.2 154.779 1154.48 154.206C1155.26 154.73 1156.26 155.332 1157.48 156.014C1156.88 157.167 1155.97 157.922 1154.77 158.277C1153.56 158.633 1152.27 158.739 1150.9 158.595ZM1171.92 152.871C1170.36 152.657 1168.85 152.468 1167.38 152.303L1166.69 160.103L1162.96 159.711L1163.65 151.912C1162.16 151.766 1160.65 151.637 1159.1 151.525L1159.38 148.387L1172.2 149.733L1171.92 152.871ZM1172.55 159.422C1172.93 158.95 1173.25 158.506 1173.51 158.09C1173.78 157.676 1174.04 157.191 1174.3 156.635C1174.97 157.118 1175.76 157.523 1176.68 157.85C1177.59 158.178 1178.45 158.384 1179.26 158.468C1180.08 158.555 1180.67 158.546 1181.02 158.442C1181.37 158.329 1181.56 158.187 1181.57 158.018C1181.63 157.41 1180.73 157.009 1178.88 156.815C1176.85 156.601 1175.4 156.238 1174.52 155.723C1173.64 155.199 1173.24 154.463 1173.33 153.517C1173.45 152.172 1174.09 151.24 1175.26 150.719C1176.43 150.199 1177.91 150.032 1179.69 150.219C1180.72 150.328 1181.77 150.573 1182.83 150.956C1183.9 151.33 1184.85 151.792 1185.69 152.342C1185.34 152.97 1184.97 153.74 1184.57 154.652C1184.49 154.845 1184.43 154.99 1184.38 155.085C1183.91 154.623 1183.17 154.204 1182.17 153.828C1181.17 153.441 1180.28 153.206 1179.49 153.124C1178.55 153.025 1177.9 153.023 1177.56 153.118C1177.23 153.203 1177.05 153.365 1177.02 153.604C1177 153.843 1177.21 154.061 1177.64 154.257C1178.09 154.444 1178.74 154.583 1179.59 154.673C1181.7 154.895 1183.21 155.3 1184.12 155.888C1185.04 156.466 1185.45 157.254 1185.36 158.25C1185.24 159.644 1184.64 160.597 1183.57 161.108C1182.5 161.609 1180.94 161.751 1178.88 161.535C1177.78 161.419 1176.66 161.182 1175.54 160.822C1174.42 160.453 1173.42 159.986 1172.55 159.422ZM1202.04 163.969C1200.99 163.858 1200.04 163.497 1199.2 162.886C1198.36 162.265 1197.72 161.484 1197.27 160.542C1196.83 159.601 1196.66 158.602 1196.75 157.547C1196.85 156.491 1197.19 155.547 1197.79 154.714C1198.39 153.883 1199.16 153.255 1200.09 152.83C1201.02 152.405 1202.01 152.248 1203.07 152.359C1204.11 152.469 1205.05 152.829 1205.89 153.44C1206.74 154.052 1207.39 154.828 1207.83 155.769C1208.26 156.71 1208.44 157.709 1208.34 158.764C1208.25 159.82 1207.91 160.764 1207.31 161.597C1206.71 162.429 1205.95 163.062 1205 163.496C1204.07 163.921 1203.08 164.078 1202.04 163.969ZM1227.17 162.341L1228.54 155.654L1232.18 156.037L1229.22 166.674L1224.65 166.193L1224.17 160.035L1222.45 165.962L1218.07 165.502L1217.03 154.444L1220.67 154.827L1220.84 161.585L1222.62 155.032L1226.61 155.45L1227.17 162.341ZM1234.74 167.555L1231.04 167.167L1234.87 156.454L1238.57 156.843L1234.74 167.555ZM1240.99 168.212L1237.29 167.823L1241.12 157.111L1244.82 157.5L1240.99 168.212ZM1256.01 165.372L1257.39 158.685L1261.03 159.067L1258.07 169.705L1253.49 169.224L1253.01 163.066L1251.3 168.993L1246.91 168.532L1245.87 157.475L1249.51 157.857L1249.68 164.616L1251.47 158.063L1255.45 158.481L1256.01 165.372ZM1274.09 171.54C1273.04 171.429 1272.09 171.068 1271.25 170.457C1270.42 169.836 1269.77 169.055 1269.32 168.113C1268.89 167.172 1268.71 166.173 1268.81 165.118C1268.9 164.062 1269.24 163.118 1269.84 162.285C1270.45 161.454 1271.21 160.826 1272.15 160.401C1273.08 159.976 1274.07 159.819 1275.12 159.93C1276.17 160.04 1277.11 160.4 1277.95 161.011C1278.8 161.623 1279.44 162.399 1279.88 163.34C1280.32 164.281 1280.49 165.28 1280.4 166.335C1280.3 167.391 1279.96 168.335 1279.36 169.168C1278.77 170 1278 170.633 1277.06 171.067C1276.13 171.492 1275.14 171.649 1274.09 171.54ZM1294.75 173.709C1292.47 173.47 1290.84 172.801 1289.85 171.702C1288.86 170.593 1288.45 169.142 1288.61 167.349C1288.77 165.576 1289.42 164.247 1290.57 163.363C1291.74 162.48 1293.46 162.158 1295.75 162.399C1298.05 162.64 1299.68 163.315 1300.66 164.423C1301.64 165.532 1302.06 166.973 1301.9 168.746C1301.74 170.549 1301.09 171.887 1299.94 172.762C1298.78 173.636 1297.05 173.952 1294.75 173.709ZM1295.02 170.661C1296.12 170.777 1296.94 170.652 1297.46 170.285C1297.98 169.908 1298.29 169.271 1298.37 168.374C1298.44 167.498 1298.26 166.82 1297.81 166.34C1297.36 165.861 1296.58 165.563 1295.48 165.447C1294.39 165.332 1293.58 165.463 1293.05 165.84C1292.52 166.217 1292.22 166.844 1292.15 167.721C1292.07 168.607 1292.25 169.29 1292.7 169.77C1293.15 170.249 1293.92 170.546 1295.02 170.661ZM1312.4 164.45L1316.1 164.838L1315.57 170.785C1315.42 172.247 1314.81 173.405 1313.74 174.257C1312.68 175.111 1310.99 175.417 1308.68 175.173C1306.33 174.926 1304.76 174.304 1303.98 173.307C1303.19 172.3 1302.88 171.055 1303.03 169.573L1303.56 163.522L1307.26 163.91L1306.75 169.723C1306.71 170.161 1306.71 170.523 1306.74 170.808C1306.79 171.084 1306.98 171.36 1307.3 171.636C1307.64 171.912 1308.2 172.092 1308.99 172.175C1309.84 172.264 1310.48 172.211 1310.9 172.013C1311.32 171.806 1311.58 171.557 1311.67 171.265C1311.78 170.975 1311.85 170.596 1311.89 170.127L1312.4 164.45ZM1328.95 169.853C1328.87 170.72 1328.59 171.429 1328.11 171.982C1327.64 172.536 1326.88 172.893 1325.83 173.055C1325.94 173.227 1326.01 173.36 1326.05 173.455L1328.17 177.071L1324.11 176.644C1323.75 175.781 1323.16 174.553 1322.35 172.96L1320.15 172.73L1319.85 176.196L1316.33 175.826C1316.58 173.902 1316.78 172.098 1316.93 170.415C1317.07 168.731 1317.2 166.919 1317.29 164.979L1320.81 165.348L1320.81 165.363L1323.86 165.685C1325.87 165.896 1327.25 166.367 1327.99 167.098C1328.72 167.829 1329.04 168.747 1328.95 169.853ZM1320.55 168.232L1320.4 169.935L1322.42 170.147C1323.26 170.236 1323.9 170.278 1324.33 170.273C1324.77 170.259 1325.09 170.201 1325.26 170.1C1325.44 169.998 1325.54 169.832 1325.56 169.603C1325.58 169.384 1325.52 169.207 1325.37 169.07C1325.22 168.934 1324.93 168.818 1324.5 168.722C1324.07 168.626 1323.42 168.534 1322.57 168.444L1320.55 168.232ZM1340.21 167.403C1342.19 167.611 1343.54 168.109 1344.25 168.898C1344.97 169.676 1345.27 170.703 1345.15 171.978C1345.08 172.855 1344.86 173.586 1344.49 174.171C1344.13 174.746 1343.55 175.167 1342.74 175.435C1341.93 175.692 1340.85 175.749 1339.49 175.606L1336.38 175.28L1336.15 177.909L1332.48 177.524C1332.73 175.6 1332.93 173.796 1333.08 172.112C1333.23 170.429 1333.35 168.617 1333.44 166.676L1337.11 167.062L1337.11 167.077L1340.21 167.403ZM1338.7 172.612C1339.52 172.699 1340.14 172.734 1340.56 172.717C1340.98 172.691 1341.28 172.602 1341.45 172.449C1341.64 172.298 1341.74 172.057 1341.77 171.729C1341.8 171.4 1341.74 171.148 1341.6 170.972C1341.47 170.787 1341.19 170.642 1340.78 170.539C1340.38 170.436 1339.75 170.34 1338.91 170.251L1336.85 170.035L1336.64 172.396L1338.7 172.612ZM1358.36 172.944C1358.28 173.81 1358 174.52 1357.52 175.073C1357.05 175.626 1356.29 175.984 1355.24 176.145C1355.35 176.317 1355.42 176.451 1355.47 176.545L1357.58 180.161L1353.53 179.735C1353.16 178.872 1352.57 177.644 1351.76 176.051L1349.57 175.82L1349.26 179.287L1345.74 178.917C1345.99 176.993 1346.19 175.189 1346.34 173.505C1346.49 171.822 1346.61 170.01 1346.7 168.069L1350.22 168.439L1350.22 168.454L1353.28 168.775C1355.29 168.986 1356.66 169.457 1357.4 170.188C1358.14 170.92 1358.46 171.838 1358.36 172.944ZM1349.97 171.323L1349.81 173.026L1351.83 173.238C1352.67 173.326 1353.31 173.368 1353.74 173.364C1354.19 173.35 1354.5 173.292 1354.68 173.19C1354.86 173.088 1354.96 172.923 1354.98 172.694C1355 172.475 1354.93 172.297 1354.78 172.161C1354.64 172.025 1354.35 171.909 1353.91 171.813C1353.48 171.717 1352.83 171.624 1351.98 171.534L1349.97 171.323ZM1365.53 181.147C1363.26 180.908 1361.62 180.239 1360.64 179.14C1359.65 178.031 1359.24 176.58 1359.4 174.787C1359.55 173.014 1360.21 171.685 1361.36 170.801C1362.52 169.918 1364.25 169.596 1366.54 169.837C1368.83 170.078 1370.47 170.753 1371.45 171.861C1372.43 172.97 1372.85 174.411 1372.69 176.184C1372.53 177.987 1371.87 179.325 1370.72 180.199C1369.57 181.074 1367.84 181.39 1365.53 181.147ZM1365.8 178.099C1366.91 178.215 1367.72 178.09 1368.25 177.722C1368.77 177.345 1369.07 176.709 1369.15 175.812C1369.23 174.936 1369.05 174.257 1368.6 173.778C1368.15 173.298 1367.37 173.001 1366.27 172.885C1365.17 172.77 1364.36 172.901 1363.84 173.278C1363.31 173.655 1363.01 174.282 1362.93 175.158C1362.85 176.045 1363.04 176.728 1363.49 177.208C1363.94 177.687 1364.71 177.984 1365.8 178.099ZM1385.46 172.126L1384.99 177.401C1384.83 179.263 1384.22 180.637 1383.16 181.522C1382.12 182.398 1380.56 182.726 1378.48 182.508C1377.29 182.383 1376.2 182.092 1375.22 181.637C1374.25 181.183 1373.39 180.636 1372.65 179.995C1372.9 179.398 1373.1 178.821 1373.27 178.266C1373.44 177.711 1373.59 177.097 1373.71 176.426C1374.66 177.361 1375.55 178.033 1376.39 178.442C1377.23 178.852 1378.04 179.098 1378.82 179.181C1379.64 179.267 1380.24 179.143 1380.62 178.811C1381 178.479 1381.23 177.866 1381.32 176.97L1381.42 175.835C1381.57 174.221 1381.64 172.852 1381.65 171.727L1385.46 172.126ZM1389.45 180.749C1393.23 181.127 1395.97 181.36 1397.68 181.449C1397.58 181.85 1397.49 182.269 1397.44 182.705C1397.39 183.132 1397.33 183.674 1397.28 184.332L1385.69 183.114C1385.94 181.19 1386.14 179.386 1386.29 177.703C1386.43 176.019 1386.55 174.207 1386.65 172.266L1398.24 173.484L1398 176.189L1389.93 175.341L1389.8 176.775C1390.28 176.835 1390.98 176.914 1391.92 177.013C1393.5 177.179 1395.14 177.321 1396.83 177.439L1396.61 180.009C1394.92 179.771 1393.29 179.569 1391.71 179.403C1390.77 179.305 1390.06 179.236 1389.59 179.196L1389.45 180.749ZM1405.17 185.312C1402.92 185.076 1401.31 184.424 1400.33 183.356C1399.35 182.288 1398.94 180.867 1399.1 179.094C1399.26 177.311 1399.91 175.958 1401.07 175.033C1402.23 174.109 1403.93 173.765 1406.17 174.002C1409.32 174.332 1411.32 175.634 1412.2 177.907C1411.28 178.122 1410.18 178.475 1408.93 178.966C1408.69 178.378 1408.27 177.916 1407.66 177.581C1407.07 177.248 1406.45 177.047 1405.81 176.979C1404.85 176.879 1404.12 177.058 1403.6 177.517C1403.09 177.966 1402.8 178.559 1402.74 179.296C1402.67 180.093 1402.86 180.771 1403.31 181.332C1403.77 181.883 1404.52 182.213 1405.56 182.322C1406.38 182.408 1407.05 182.343 1407.56 182.125C1408.07 181.897 1408.47 181.497 1408.75 180.923C1409.53 181.447 1410.53 182.05 1411.76 182.731C1411.15 183.884 1410.25 184.639 1409.04 184.995C1407.83 185.351 1406.55 185.456 1405.17 185.312ZM1426.19 179.588C1424.64 179.375 1423.12 179.185 1421.65 179.021L1420.96 186.82L1417.23 186.428L1417.92 178.629C1416.44 178.483 1414.92 178.354 1413.38 178.242L1413.66 175.104L1426.47 176.451L1426.19 179.588ZM1426.82 186.139C1427.21 185.667 1427.53 185.223 1427.78 184.808C1428.05 184.393 1428.32 183.908 1428.58 183.353C1429.25 183.835 1430.04 184.24 1430.95 184.568C1431.87 184.895 1432.73 185.101 1433.53 185.186C1434.36 185.272 1434.95 185.264 1435.3 185.16C1435.65 185.046 1435.83 184.904 1435.85 184.735C1435.9 184.127 1435 183.726 1433.15 183.532C1431.12 183.319 1429.67 182.955 1428.79 182.44C1427.92 181.916 1427.52 181.181 1427.6 180.234C1427.72 178.89 1428.37 177.957 1429.54 177.436C1430.71 176.916 1432.18 176.749 1433.96 176.936C1435 177.045 1436.04 177.291 1437.1 177.674C1438.18 178.048 1439.13 178.51 1439.96 179.06C1439.62 179.687 1439.24 180.457 1438.84 181.37C1438.76 181.563 1438.7 181.707 1438.65 181.802C1438.18 181.341 1437.44 180.922 1436.44 180.545C1435.44 180.158 1434.55 179.924 1433.77 179.841C1432.82 179.742 1432.18 179.74 1431.84 179.835C1431.5 179.92 1431.32 180.082 1431.3 180.321C1431.28 180.56 1431.48 180.778 1431.92 180.974C1432.36 181.162 1433.01 181.301 1433.87 181.39C1435.98 181.612 1437.49 182.017 1438.4 182.605C1439.31 183.184 1439.72 183.971 1439.64 184.967C1439.51 186.362 1438.92 187.314 1437.85 187.825C1436.78 188.326 1435.21 188.469 1433.16 188.253C1432.05 188.137 1430.94 187.899 1429.82 187.54C1428.69 187.17 1427.7 186.704 1426.82 186.139ZM1456.31 190.686C1455.26 190.575 1454.31 190.214 1453.47 189.603C1452.64 188.982 1451.99 188.201 1451.54 187.259C1451.11 186.318 1450.93 185.32 1451.03 184.264C1451.12 183.208 1451.46 182.264 1452.06 181.432C1452.67 180.601 1453.43 179.973 1454.37 179.548C1455.3 179.123 1456.29 178.966 1457.34 179.076C1458.39 179.186 1459.33 179.546 1460.17 180.157C1461.02 180.769 1461.66 181.546 1462.1 182.487C1462.54 183.428 1462.71 184.426 1462.62 185.482C1462.52 186.538 1462.18 187.482 1461.58 188.314C1460.99 189.146 1460.22 189.779 1459.28 190.213C1458.35 190.638 1457.36 190.796 1456.31 190.686ZM1481.44 189.058L1482.82 182.371L1486.46 182.754L1483.5 193.391L1478.92 192.91L1478.44 186.752L1476.73 192.68L1472.34 192.219L1471.3 181.161L1474.94 181.544L1475.11 188.303L1476.9 181.749L1480.88 182.168L1481.44 189.058ZM1489.02 194.273L1485.32 193.884L1489.14 183.172L1492.84 183.56L1489.02 194.273ZM1495.27 194.929L1491.57 194.541L1495.39 183.828L1499.09 184.217L1495.27 194.929ZM1510.29 192.089L1511.66 185.402L1515.3 185.785L1512.34 196.422L1507.76 195.941L1507.29 189.783L1505.57 195.711L1501.19 195.25L1500.15 184.192L1503.79 184.575L1503.96 191.333L1505.74 184.78L1509.72 185.199L1510.29 192.089ZM1528.37 198.257C1527.31 198.146 1526.37 197.785 1525.53 197.174C1524.69 196.553 1524.05 195.772 1523.6 194.83C1523.16 193.889 1522.99 192.891 1523.08 191.835C1523.17 190.779 1523.52 189.835 1524.11 189.003C1524.72 188.172 1525.49 187.544 1526.42 187.119C1527.35 186.694 1528.34 186.537 1529.4 186.647C1530.44 186.757 1531.38 187.117 1532.22 187.728C1533.07 188.34 1533.72 189.117 1534.15 190.058C1534.59 190.999 1534.77 191.997 1534.67 193.053C1534.58 194.109 1534.23 195.053 1533.64 195.885C1533.04 196.717 1532.27 197.35 1531.33 197.784C1530.4 198.209 1529.41 198.367 1528.37 198.257Z" fill="#0E0B0D"/>
<defs>
<filter id="filter0_b_965_138" x="-7.88086" y="8.09766" width="1957.57" height="251.949" filterUnits="userSpaceOnUse" color-interpolation-filters="sRGB">
<feFlood flood-opacity="0" result="BackgroundImageFix"/>
<feGaussianBlur in="BackgroundImageFix" stdDeviation="5"/>
<feComposite in2="SourceAlpha" operator="in" result="effect1_backgroundBlur_965_138"/>
<feBlend mode="normal" in="SourceGraphic" in2="effect1_backgroundBlur_965_138" result="shape"/>
</filter>
<linearGradient id="paint0_linear_965_138" x1="1950.02" y1="12.8853" x2="2.00181" y2="-74.5128" gradientUnits="userSpaceOnUse">
<stop offset="0.0677083" stop-color="#0E0B0D"/>
<stop offset="0.411458" stop-color="#0E0B0D" stop-opacity="0"/>
<stop offset="1" stop-color="#0E0B0D"/>
</linearGradient>
</defs>
</svg>
